<svg xmlns="http://www.w3.org/2000/svg" width="473.103" height="124.743" viewBox="0 0 473.103 124.743">
  <g id="Group_3473" data-name="Group 3473" transform="translate(-156.122 -87.12)">
    <path id="Path_343" data-name="Path 343" d="M316,53.5h1.559l-.77-12.367H314.75l-2.2,5.981q-.415,1.163-.741,2.2c-.219.689-.405,1.343-.565,1.968h-.051c-.158-.638-.341-1.306-.55-2s-.441-1.411-.7-2.171l-2.108-5.981h-2.041l-.86,12.367h1.521l.329-5.3c.039-.624.071-1.257.1-1.9s.061-1.272.085-1.878.041-1.175.051-1.693h.036c.175.734.387,1.5.629,2.3s.51,1.639.8,2.51l2,5.889H311.7l2.186-6q.466-1.282.855-2.448c.254-.777.494-1.53.7-2.253h.054c-.005.39,0,.8.01,1.242s.02.892.042,1.359.041.933.063,1.394.046.913.07,1.345Z" transform="translate(311.669 45.988)" fill="#666766"/>
    <path id="Path_344" data-name="Path 344" d="M302.678,53.5h1.616V42.492h3.78v-1.36h-9.157v1.36h3.762Z" transform="translate(307.48 45.987)" fill="#666766"/>
    <path id="Path_345" data-name="Path 345" d="M109.019,107.31h40.4v-6.832H117.131V46.321h-8.113Z" transform="translate(175.278 49.6)" fill="#1963ad"/>
    <path id="Path_346" data-name="Path 346" d="M268.907,107.31h7.683V58.366h.173l31.861,48.944h8.884V46.321h-7.689V95.779h-.169L277.533,46.321h-8.626Z" transform="translate(286.589 49.6)" fill="#1963ad"/>
    <path id="Path_347" data-name="Path 347" d="M202.685,107.31h40.4v-6.832H210.8V46.321h-8.116Z" transform="translate(240.486 49.6)" fill="#1963ad"/>
    <path id="Path_348" data-name="Path 348" d="M190.282,107.31H198.4V53.155h20.329V46.321H169.952v6.834h20.331Z" transform="translate(217.698 49.6)" fill="#1963ad"/>
    <path id="Path_349" data-name="Path 349" d="M192.987,105.92,169.4,48.317h-8.877l-23.586,57.6h8.358l9.257-23.8h-.03l10.229-26.867h.169L172.2,74.7l11.824,31.223Z" transform="translate(194.713 50.989)" fill="#1963ad"/>
    <path id="Path_350" data-name="Path 350" d="M69.81,73.426l5.774-.039h2.448l.005-.012h.014l5.574-27.638c.044-.214.032-.509-.01-.509H75.548c-.032,0-.054.075-.068.158L69.81,73.36l-.005.027h.012Z" transform="translate(147.978 48.839)" fill="#666766"/>
    <path id="Path_351" data-name="Path 351" d="M88.224,67.513l-2.768.017-3.487.022-6.064.037-3.452.025-2.756.014-7.86.051L60.2,75.9l45.788-.283a1.979,1.979,0,0,0,.521-.051V67.4Z" transform="translate(141.292 64.273)" fill="#666766"/>
    <path id="Path_352" data-name="Path 352" d="M52.45,67.664l-18.422.117c-.149,0-.042.029-.575.068V76l17.36-.109Z" transform="translate(122.671 64.458)" fill="#666766"/>
    <path id="Path_353" data-name="Path 353" d="M41.127,127.642a1.011,1.011,0,0,0-.01.371h8.335l.025-.041,6.451-32.455L47.5,95.6Z" transform="translate(127.998 83.849)" fill="#1963ad"/>
    <path id="Path_354" data-name="Path 354" d="M56.925,99.911l.954-4.806.958-4.8,1.633-8.228.954-4.8.957-4.8,5.085-25.583.014-.089h-8.4L53.963,72.523l-.956,4.805-.956,4.8-1.635,8.229-.955,4.8-.957,4.8-.4,2,8.418-.055Z" transform="translate(132.874 49.933)" fill="#1963ad"/>
    <path id="Path_355" data-name="Path 355" d="M74.606,84.948l-4.893.034-4.892.025-8.422.056-4.9.031-4.9.029-12.723.083a1.921,1.921,0,0,1-.424.032V93.6l11.481-.112,4.907-.046,4.9-.046,8.427-.08,4.9-.046,4.9-.044,12.76-.122L87.4,84.87Z" transform="translate(122.67 76.436)" fill="#1963ad"/>
    <path id="Path_356" data-name="Path 356" d="M73.769,93.052l21.582-.209A2.008,2.008,0,0,0,96,92.767V84.734l-20.566.129Z" transform="translate(150.738 76.342)" fill="#1963ad"/>
    <path id="Path_357" data-name="Path 357" d="M72.225,76.139l-.663,3.255-.405,2L70.181,86.2,69.21,91l-1.674,8.238-.977,4.807-.977,4.81L59.6,138.3a1.585,1.585,0,0,0,0,.592h8.533c.02,0-.241-.161.054-.221l5.935-29.9.955-4.81.957-4.8,1.627-8.211.955-4.8.952-4.8.4-1.995.648-3.274-1.593.012Z" transform="translate(140.858 70.309)" fill="#666766"/>
    <path id="Path_358" data-name="Path 358" d="M119.086,127.949h4.326V98.475H133.53V94.836H109.019v3.639h10.067Z" transform="translate(175.278 83.375)" fill="#5f6160"/>
    <path id="Path_359" data-name="Path 359" d="M142.76,108.889H129.937V98.426h13.607v-3.59H125.613v33.113h18.67v-3.585H129.937V112.425H142.76Z" transform="translate(186.831 83.375)" fill="#5f6160"/>
    <path id="Path_360" data-name="Path 360" d="M162.957,123.7a17.187,17.187,0,0,1-7.027,1.377c-8.006,0-12.674-5.158-12.674-13.315,0-8.693,5.156-13.659,12.92-13.659a15.2,15.2,0,0,1,6.632,1.377l1.08-3.486a17.923,17.923,0,0,0-7.86-1.476c-10.269,0-17.294,6.976-17.294,17.393,0,10.906,6.976,16.8,16.312,16.8a21.093,21.093,0,0,0,8.744-1.567Z" transform="translate(195.965 83.154)" fill="#5f6160"/>
    <path id="Path_361" data-name="Path 361" d="M156.663,94.836v33.113h4.324V112.425H177v15.524h4.322V94.836H177v13.855H160.987V94.836Z" transform="translate(208.447 83.375)" fill="#5f6160"/>
    <path id="Path_362" data-name="Path 362" d="M179.605,127.949V113.8c0-5.5-.049-9.482-.3-13.658l.148-.049a96.567,96.567,0,0,0,6.137,11.054l10.518,16.8h4.32V94.836h-4.025v13.856c0,5.16.1,9.19.488,13.607l-.146.051a92.94,92.94,0,0,0-5.894-10.757L180.294,94.836h-4.717v33.113Z" transform="translate(221.614 83.374)" fill="#5f6160"/>
    <path id="Path_363" data-name="Path 363" d="M208.653,97.981c7.126,0,10.567,6.876,10.567,13.51,0,7.512-3.835,13.753-10.618,13.753S198,118.906,198,111.783c0-7.224,3.533-13.8,10.657-13.8m.149-3.491c-8.842,0-15.325,6.88-15.325,17.393,0,10.023,6.088,16.846,14.882,16.846,8.452,0,15.381-6.088,15.381-17.435C223.74,101.419,217.892,94.49,208.8,94.49Z" transform="translate(234.076 83.133)" fill="#5f6160"/>
    <path id="Path_364" data-name="Path 364" d="M214.561,127.949h18.475v-3.586H218.884V94.836h-4.323Z" transform="translate(248.754 83.375)" fill="#5f6160"/>
    <path id="Path_365" data-name="Path 365" d="M241.15,97.981c7.127,0,10.569,6.876,10.569,13.51,0,7.512-3.833,13.753-10.615,13.753s-10.613-6.337-10.613-13.461c0-7.224,3.538-13.8,10.659-13.8m.149-3.491c-8.84,0-15.327,6.88-15.327,17.393,0,10.023,6.091,16.846,14.886,16.846,8.447,0,15.378-6.088,15.378-17.435C256.236,101.419,250.391,94.49,241.3,94.49Z" transform="translate(256.699 83.133)" fill="#5f6160"/>
    <path id="Path_366" data-name="Path 366" d="M273.145,110.7h-10.9v3.436h6.68v9.877a13.959,13.959,0,0,1-5.7.885c-7.762,0-12.776-4.963-12.776-13.368,0-8.3,5.262-13.313,13.313-13.313a16.443,16.443,0,0,1,7.324,1.426l1.075-3.487a20.7,20.7,0,0,0-8.3-1.523c-11.1,0-17.932,7.224-17.932,17.1,0,5.156,1.771,9.58,4.62,12.331,3.24,3.092,7.368,4.371,12.38,4.371a30,30,0,0,0,10.216-1.817Z" transform="translate(270.591 83.234)" fill="#5f6160"/>
    <rect id="Rectangle_127" data-name="Rectangle 127" width="4.325" height="33.112" transform="translate(550.172 178.215)" fill="#5f6160"/>
    <path id="Path_367" data-name="Path 367" d="M289.837,108.889H277.015V98.426h13.606v-3.59h-17.93v33.113h18.668v-3.585H277.015V112.425h12.823Z" transform="translate(289.223 83.375)" fill="#5f6160"/>
    <path id="Path_368" data-name="Path 368" d="M285.986,126.55a17.092,17.092,0,0,0,8.449,2.159c7.813,0,11.544-4.468,11.544-9.578,0-4.861-2.8-7.565-8.4-9.726-4.573-1.767-6.585-3.291-6.585-6.389,0-2.256,1.72-4.958,6.237-4.958a12.3,12.3,0,0,1,6.242,1.569l1.181-3.486a14.825,14.825,0,0,0-7.272-1.623c-6.437,0-10.708,3.833-10.708,8.993,0,4.617,3.335,7.468,8.744,9.431,4.466,1.672,6.239,3.491,6.239,6.535,0,3.343-2.553,5.647-6.929,5.647a14.469,14.469,0,0,1-7.612-2.161Z" transform="translate(298.478 83.153)" fill="#5f6160"/>
    <path id="Path_369" data-name="Path 369" d="M285.915,67.73A33.354,33.354,0,0,0,282.4,59a27.742,27.742,0,0,0-5.85-7.058,25.7,25.7,0,0,0-8.172-4.741,32.5,32.5,0,0,0-20.966,0,25.652,25.652,0,0,0-8.189,4.741A27.747,27.747,0,0,0,233.367,59a33.345,33.345,0,0,0-3.514,8.729,40.165,40.165,0,0,0,0,19.36,33.3,33.3,0,0,0,3.514,8.729,27.771,27.771,0,0,0,5.852,7.063,25.613,25.613,0,0,0,8.189,4.737,32.505,32.505,0,0,0,20.966,0,25.659,25.659,0,0,0,8.172-4.737,27.765,27.765,0,0,0,5.85-7.063,33.307,33.307,0,0,0,3.518-8.729,40.278,40.278,0,0,0,0-19.36Zm-7.7,17.013a28.326,28.326,0,0,1-2.38,6.82,21.063,21.063,0,0,1-4.1,5.664,18.2,18.2,0,0,1-5.952,3.874,22.618,22.618,0,0,1-15.8,0,18.3,18.3,0,0,1-5.95-3.874,21.227,21.227,0,0,1-4.1-5.664,28.464,28.464,0,0,1-2.375-6.82,35.3,35.3,0,0,1,0-14.665,28.439,28.439,0,0,1,2.375-6.817,21.333,21.333,0,0,1,4.1-5.669,18.429,18.429,0,0,1,5.95-3.872,22.669,22.669,0,0,1,15.8,0,18.328,18.328,0,0,1,5.952,3.872,21.168,21.168,0,0,1,4.1,5.669,28.3,28.3,0,0,1,2.38,6.817,35.372,35.372,0,0,1,0,14.665Z" transform="translate(258.576 49.004)" fill="#1963ad"/>
  </g>
</svg>
