<svg xmlns="http://www.w3.org/2000/svg" width="91.678" height="117.795" viewBox="0 0 91.678 117.795">
  <g id="Group_3473" data-name="Group 3473" transform="translate(2579.968 -8900.914)">
    <path id="Path_350" data-name="Path 350" d="M69.81,73.426l5.774-.039h2.448l.005-.012h.014l5.574-27.638c.044-.214.032-.509-.01-.509H75.548c-.032,0-.054.075-.068.158L69.81,73.36l-.005.027h.012Z" transform="translate(-2588.112 8855.685)" fill="#666766"/>
    <path id="Path_351" data-name="Path 351" d="M88.224,67.513l-2.768.017-3.487.022-6.064.037-3.452.025-2.756.014-7.86.051L60.2,75.9l45.788-.283a1.979,1.979,0,0,0,.521-.051V67.4Z" transform="translate(-2594.798 8871.119)" fill="#666766"/>
    <path id="Path_352" data-name="Path 352" d="M52.45,67.664l-18.422.117c-.149,0-.042.029-.575.068V76l17.36-.109Z" transform="translate(-2613.419 8871.304)" fill="#666766"/>
    <path id="Path_353" data-name="Path 353" d="M41.127,127.642a1.011,1.011,0,0,0-.01.371h8.335l.025-.041,6.451-32.455L47.5,95.6Z" transform="translate(-2608.092 8890.695)" fill="#1963ad"/>
    <path id="Path_354" data-name="Path 354" d="M56.925,99.911l.954-4.806.958-4.8,1.633-8.228.954-4.8.957-4.8,5.085-25.583.014-.089h-8.4L53.963,72.523l-.956,4.805-.956,4.8-1.635,8.229-.955,4.8-.957,4.8-.4,2,8.418-.055Z" transform="translate(-2603.216 8856.779)" fill="#1963ad"/>
    <path id="Path_355" data-name="Path 355" d="M74.606,84.948l-4.893.034-4.892.025-8.422.056-4.9.031-4.9.029-12.723.083a1.921,1.921,0,0,1-.424.032V93.6l11.481-.112,4.907-.046,4.9-.046,8.427-.08,4.9-.046,4.9-.044,12.76-.122L87.4,84.87Z" transform="translate(-2613.42 8883.282)" fill="#1963ad"/>
    <path id="Path_356" data-name="Path 356" d="M73.769,93.052l21.582-.209A2.008,2.008,0,0,0,96,92.767V84.734l-20.566.129Z" transform="translate(-2585.352 8883.188)" fill="#1963ad"/>
    <path id="Path_357" data-name="Path 357" d="M72.225,76.139l-.663,3.255-.405,2L70.181,86.2,69.21,91l-1.674,8.238-.977,4.807-.977,4.81L59.6,138.3a1.585,1.585,0,0,0,0,.592h8.533c.02,0-.241-.161.054-.221l5.935-29.9.955-4.81.957-4.8,1.627-8.211.955-4.8.952-4.8.4-1.995.648-3.274-1.593.012Z" transform="translate(-2595.232 8877.154)" fill="#666766"/>
  </g>
</svg>
